<svg width="89.666748" height="24.000000" viewBox="0 0 89.6667 24" fill="none" xmlns="http://www.w3.org/2000/svg" xmlns:xlink="http://www.w3.org/1999/xlink">
	<desc>
			Created with Pixso.
	</desc>
	<defs/>
	<path id="Life" d="M1.61799 19L10.407 19L10.407 17.1104L3.81525 17.1104L3.81525 4.4541L1.61799 4.4541L1.61799 19ZM12.7326 19L14.8566 19L14.8566 8.0918L12.7326 8.0918L12.7326 19ZM13.8068 6.40723C14.5392 6.40723 15.1496 5.84082 15.1496 5.14258C15.1496 4.44922 14.5392 3.87305 13.8068 3.87305C13.0695 3.87305 12.464 4.44922 12.464 5.14258C12.464 5.84082 13.0695 6.40723 13.8068 6.40723ZM22.9066 8.0918L20.5531 8.0918L20.5531 7.11035C20.5531 6.14355 20.9535 5.62109 21.9886 5.62109C22.4281 5.62109 22.7406 5.71875 22.9408 5.78223L23.4388 4.06348C23.141 3.95117 22.5209 3.77051 21.6615 3.77051C19.9379 3.77051 18.4242 4.78125 18.4242 6.82715L18.4242 8.0918L16.7396 8.0918L16.7396 9.7959L18.4242 9.7959L18.4242 19L20.5531 19L20.5531 9.7959L22.9066 9.7959L22.9066 8.0918ZM29.3595 19.2197C31.7423 19.2197 33.422 18.0479 33.9054 16.2705L31.8985 15.9092C31.5128 16.9395 30.5899 17.4668 29.3839 17.4668C27.5626 17.4668 26.3419 16.2852 26.2833 14.1855L34.0421 14.1855L34.0421 13.4336C34.0421 9.48828 31.6837 7.9502 29.213 7.9502C26.171 7.9502 24.169 10.2646 24.169 13.6143C24.169 17.0029 26.1417 19.2197 29.3595 19.2197ZM26.2931 12.5938C26.3761 11.0459 27.4991 9.70312 29.2276 9.70312C30.8731 9.70312 31.9522 10.9238 31.962 12.5938L26.2931 12.5938Z" fill="#FFFFFF" fill-opacity="1.000000" fill-rule="evenodd"/>
	<path id="Vector" d="M53.5859 21.8951L53.5776 21.8916L53.552 21.8776C53.4019 21.795 53.2529 21.7102 53.1052 21.6233C51.3293 20.568 49.6697 19.3283 48.1538 17.9249C45.4692 15.4201 42.625 11.7031 42.625 7.12509C42.625 3.70908 45.4998 1.00009 48.9692 1.00009C49.9338 0.995361 50.887 1.20816 51.7581 1.62262C52.6289 2.03711 53.3953 2.64261 54 3.39407C54.6047 2.64246 55.3713 2.03687 56.2424 1.62238C57.1138 1.20789 58.0671 0.995178 59.0317 1.00009C62.5002 1.00009 65.375 3.70908 65.375 7.12509C65.375 11.7043 62.5308 15.4213 59.8462 17.9237C58.3303 19.3272 56.6707 20.5669 54.8948 21.6221C54.7471 21.7094 54.5981 21.7946 54.448 21.8776L54.4224 21.8916L54.4141 21.8962L54.4106 21.8974C54.2842 21.9644 54.1431 21.9995 54 21.9995C53.8569 21.9995 53.7158 21.9644 53.5894 21.8974L53.5859 21.8951Z" fill="#FFFFFF" fill-opacity="1.000000" fill-rule="nonzero"/>
	<path id="offline_bolt" d="M63.8933 19.9668L67.0833 13.7335L64.8833 13.7335L64.8833 9.70013L61.5833 15.9334L63.8933 15.9334L63.8933 19.9668ZM64.3333 22.1668C63.3188 22.1668 62.3655 21.9743 61.4734 21.5893C60.5811 21.2043 59.8049 20.6818 59.145 20.0218C58.4851 19.3618 57.9624 18.5857 57.5774 17.6935C57.1924 16.8012 57 15.8479 57 14.8335C57 13.819 57.1924 12.8657 57.5774 11.9734C57.9624 11.0812 58.4851 10.3051 59.145 9.64511C59.8049 8.98511 60.5811 8.46262 61.4734 8.07764C62.3655 7.69263 63.3188 7.50012 64.3333 7.50012C65.3477 7.50012 66.301 7.69263 67.1934 8.07764C68.0854 8.46262 68.8616 8.98511 69.5217 9.64511C70.1816 10.3051 70.7041 11.0812 71.0891 11.9734C71.4741 12.8657 71.6667 13.819 71.6667 14.8335C71.6667 15.8479 71.4741 16.8012 71.0891 17.6935C70.7041 18.5857 70.1816 19.3618 69.5217 20.0218C68.8616 20.6818 68.0854 21.2043 67.1934 21.5893C66.301 21.9743 65.3477 22.1668 64.3333 22.1668Z" fill="#894189" fill-opacity="1.000000" fill-rule="nonzero"/>
	<path id="offline_bolt" d="M64.2666 19.5001L67.1667 13.8334L65.1667 13.8334L65.1667 10.1667L62.1667 15.8334L64.2666 15.8334L64.2666 19.5001ZM64.6667 21.5001C63.7444 21.5001 62.8777 21.3251 62.0667 20.9751C61.2556 20.6251 60.55 20.1501 59.95 19.5501C59.3501 18.9501 58.875 18.2445 58.5249 17.4334C58.175 16.6223 58 15.7556 58 14.8334C58 13.9112 58.175 13.0445 58.5249 12.2334C58.875 11.4223 59.3501 10.7167 59.95 10.1168C60.55 9.51675 61.2556 9.04175 62.0667 8.69174C62.8777 8.34174 63.7444 8.16675 64.6667 8.16675C65.5889 8.16675 66.4556 8.34174 67.2666 8.69174C68.0779 9.04175 68.7834 9.51675 69.3833 10.1168C69.9834 10.7167 70.4583 11.4223 70.8083 12.2334C71.1584 13.0445 71.3333 13.9112 71.3333 14.8334C71.3333 15.7556 71.1584 16.6223 70.8083 17.4334C70.4583 18.2445 69.9834 18.9501 69.3833 19.5501C68.7834 20.1501 68.0779 20.6251 67.2666 20.9751C66.4556 21.3251 65.5889 21.5001 64.6667 21.5001Z" fill="#FFFFFF" fill-opacity="1.000000" fill-rule="nonzero"/>
	<path id="1" d="M86.8591 4.4541L84.7205 4.4541L81.0925 6.82715L81.0925 8.92676L84.5691 6.65625L84.657 6.65625L84.657 19L86.8591 19L86.8591 4.4541Z" fill="#FFFFFF" fill-opacity="1.000000" fill-rule="evenodd"/>
</svg>
